PathFileType	4	(X/Y/Z)	s06c0203.trc
DataRate	CameraRate	NumFrames	NumMarkers	Units	OrigDataRate	OrigDataStartFrame	OrigNumFrames
200	200	7	48	mm	200	750	2000
Frame#	Time	racr			lacr			c7			jug			rlel			rdr			llel			ldr			s2			lic			ric			lasi			rasi			rpsi			lpsi			rgt			lgt			rth1			rth2			rth3			rth4			rlfc			rmfc			rsh1			rsh2			rsh3			rsh4			rlmal			rcal			rtoe			rmt5			lth1			lth2			lth4			lth3			llfc			lmfc			llmal			lcal			lmt5			lsh1			lsh2			lsh3			lsh4			ltoe			SBIKE			LBIKE			RBIKE			
		X1	Y1	Z1	X2	Y2	Z2	X3	Y3	Z3	X4	Y4	Z4	X5	Y5	Z5	X6	Y6	Z6	X7	Y7	Z7	X8	Y8	Z8	X9	Y9	Z9	X10	Y10	Z10	X11	Y11	Z11	X12	Y12	Z12	X13	Y13	Z13	X14	Y14	Z14	X15	Y15	Z15	X16	Y16	Z16	X17	Y17	Z17	X18	Y18	Z18	X19	Y19	Z19	X20	Y20	Z20	X21	Y21	Z21	X22	Y22	Z22	X23	Y23	Z23	X24	Y24	Z24	X25	Y25	Z25	X26	Y26	Z26	X27	Y27	Z27	X28	Y28	Z28	X29	Y29	Z29	X30	Y30	Z30	X31	Y31	Z31	X32	Y32	Z32	X33	Y33	Z33	X34	Y34	Z34	X35	Y35	Z35	X36	Y36	Z36	X37	Y37	Z37	X38	Y38	Z38	X39	Y39	Z39	X40	Y40	Z40	X41	Y41	Z41	X42	Y42	Z42	X43	Y43	Z43	X44	Y44	Z44	X45	Y45	Z45	X46	Y46	Z46	X47	Y47	Z47	X48	Y48	Z48	
750	3.7500	554.435244	1255.832911	-69.968920	568.663234	1229.486237	-387.855857	555.972673	1335.185672	-236.473463	539.671421	1167.549895	-225.161557	480.056331	1018.033615	49.708351	665.262921	926.978628	-49.628557	475.268800	1002.576598	-510.594527	655.539337	921.866006	-410.213726	14.301446	1139.564947	-234.268425	171.121903	1106.366518	-394.606405	157.769145	1110.778669	-63.016693	188.486580	1060.863557	-350.690555	190.388197	1071.818323	-100.411992	44.446064	1177.137154	-196.526340	45.532368	1175.176937	-256.678727	124.556631	1021.071200	-33.955922	155.362791	1059.620129	-417.065460	193.698665	900.690795	-14.629263	248.972504	828.493941	-18.578026	260.580451	742.402494	-30.262680	280.974902	844.398529	-32.720729	284.590268	638.169667	-42.386970	277.625724	613.540547	-153.474029	257.703357	519.444309	-18.534724	263.830022	433.690099	-36.081284	227.444678	354.658484	-42.087465	287.343735	433.744344	-69.747700	208.269121	275.754353	-49.207395	143.763490	269.611771	-98.166926	393.021368	149.153969	-94.258601	294.399979	166.793087	-25.563414	228.187151	982.732196	-427.214608	313.332049	963.763078	-421.392322	329.183318	994.170480	-406.599205	379.444042	903.368475	-421.311076	442.892058	812.930023	-392.265613	439.844146	802.686175	-271.628815	136.261267	606.530509	-372.147438	60.349403	631.553256	-324.682325	178.961236	476.036376	-398.170597	365.992079	739.391383	-407.535154	306.965596	680.377238	-382.849658	222.444181	651.814998	-381.948356	322.294924	665.497994	-350.452229	249.179284	423.509435	-341.338708	-203.844280	865.042612	-210.775222	-50.895972	80.514976	-411.366254	-50.921607	80.369748	-14.033088	
751	3.7550	555.342713	1255.773461	-71.629026	568.263931	1228.766778	-389.120602	556.315515	1334.374103	-237.986097	539.793839	1166.585068	-226.350943	481.530142	1018.508525	49.821863	665.966672	926.599860	-49.348086	474.312363	1001.638404	-510.286388	654.835233	921.826595	-409.698720	15.087830	1139.489396	-229.642244	170.179187	1106.596400	-394.325255	158.921158	1110.749374	-62.218220	186.947247	1060.264837	-350.927770	191.445498	1071.747592	-99.669810	45.287693	1177.060304	-195.481684	45.461805	1175.688601	-255.100515	125.004737	1020.555710	-33.333717	154.296388	1062.521622	-415.785270	192.915716	899.212863	-14.714374	247.282488	826.351558	-18.918915	257.679038	740.122364	-30.944779	279.447751	841.911905	-33.252023	280.626378	636.032962	-43.209189	272.794771	611.355059	-154.449988	253.467695	517.650052	-18.978940	259.175862	431.807121	-36.481768	222.513527	352.944726	-42.152100	282.582965	431.744518	-70.277588	202.983919	274.056077	-49.077818	138.236324	269.700669	-97.894431	384.896188	143.170161	-94.114218	286.686929	163.046811	-25.442862	227.671111	986.932775	-426.490549	313.092628	969.391051	-420.741543	328.506401	999.906973	-405.498676	380.175737	910.028249	-420.862871	446.124086	820.223229	-391.506057	443.038533	809.479153	-270.918272	141.500248	609.955672	-372.205277	64.818565	633.305491	-324.754455	186.903034	480.578476	-398.244855	370.241491	746.165268	-407.323941	311.677751	686.142767	-382.713888	227.468723	656.670124	-382.072682	327.107699	671.349973	-350.339345	258.233312	429.580680	-341.302061	-203.869614	865.056625	-210.676432	-50.891143	80.512415	-411.342989	-50.875908	80.290803	-14.076289	
752	3.7600	556.703190	1255.494253	-72.557460	567.935796	1227.841896	-390.307060	556.673174	1333.485716	-239.629177	539.987133	1165.673277	-227.585022	483.024883	1018.808487	49.540420	666.472909	926.526302	-49.260560	473.304448	1000.448755	-509.996223	654.308989	921.791761	-409.633569	15.056407	1140.099768	-227.980169	169.233852	1106.731125	-394.088701	160.622786	1110.580286	-61.574085	185.315487	1059.552508	-351.224213	192.561713	1071.347067	-99.303633	45.511801	1177.325248	-194.057097	45.343926	1176.091654	-253.683721	125.412823	1020.004617	-32.738812	153.297183	1065.352039	-414.533665	192.199599	897.956981	-14.647032	246.025413	824.549527	-19.308422	255.115958	738.134391	-31.692035	278.098067	839.666124	-33.916433	277.199732	634.040013	-44.111865	268.442455	609.441322	-155.512239	249.541862	516.089412	-19.647459	254.719214	430.265593	-37.000625	217.634536	351.550709	-42.314127	278.051430	429.959399	-70.847186	197.489658	272.747581	-49.134189	132.824123	269.713979	-97.881396	376.571644	137.699106	-93.916357	278.768248	159.770436	-25.332816	227.030371	991.148602	-426.268062	312.626010	974.695215	-420.067300	327.535638	1005.301492	-404.277179	380.823363	916.142582	-420.158106	448.912429	827.057527	-390.827221	445.911328	816.126997	-270.086487	146.463281	612.924379	-372.266790	69.210434	634.388397	-324.923381	195.005016	484.719445	-398.272566	374.256229	751.876819	-405.879109	316.239232	691.611226	-382.376623	232.319170	661.201630	-382.058689	331.754285	676.617984	-350.212020	267.697189	435.683517	-341.226768	-203.886138	865.089453	-210.614053	-50.904172	80.576460	-411.314043	-50.951986	80.378587	-14.035800	
753	3.7650	557.652349	1255.146242	-74.216207	567.615040	1226.571301	-391.469198	557.069530	1332.409316	-241.135399	540.000265	1164.722164	-228.820724	483.974769	1019.171506	49.525918	666.834297	926.591983	-49.285097	472.287776	999.010824	-509.762259	654.086394	921.800650	-409.882933	14.794782	1140.365997	-226.840402	168.236618	1106.823312	-394.111588	161.508191	1110.393064	-61.025790	183.670013	1058.852360	-351.764207	193.116961	1071.095279	-98.982351	45.745677	1177.628994	-192.811680	45.132818	1176.635703	-252.241142	125.739441	1019.479992	-32.203167	152.365699	1068.241479	-413.376842	191.483271	896.647522	-14.812876	244.911906	822.938053	-19.507276	253.085974	736.262314	-32.015886	276.856862	837.669883	-34.571666	274.229740	632.305679	-45.058021	264.535347	607.823086	-156.666440	245.889734	514.789520	-20.334473	250.306124	428.985509	-37.627251	212.738970	350.366579	-42.515496	273.569313	428.287653	-71.461004	191.651935	271.900242	-49.136133	127.043757	269.921463	-97.986372	368.078799	132.847467	-93.800680	270.710348	157.039685	-25.333643	226.114201	994.858202	-425.374202	311.895832	979.708548	-419.209129	326.315621	1010.536143	-403.006736	380.730615	922.156639	-419.738043	451.477143	833.846023	-389.466849	449.411349	822.970757	-268.526917	151.351515	615.322567	-372.210364	73.491926	634.734282	-325.081984	203.215847	488.296033	-397.687655	377.878101	757.614885	-405.065165	320.514932	696.556482	-381.793291	236.855655	665.415077	-382.241726	336.168040	681.623055	-349.774314	277.001067	441.226725	-341.281116	-203.901133	865.108546	-210.615170	-50.924666	80.600864	-411.307232	-50.944951	80.412069	-14.013221	
754	3.7700	558.996805	1254.597446	-75.112586	567.299350	1225.050058	-392.647917	557.494336	1331.294718	-242.779949	540.195128	1163.382454	-229.909189	484.777642	1019.467792	49.604131	667.115997	926.549833	-49.276129	471.444106	997.269313	-509.381539	654.057845	921.714177	-410.255348	16.703524	1140.197629	-225.449982	167.417371	1106.798252	-394.153263	162.272813	1110.184960	-60.516184	182.225714	1058.133616	-352.245036	193.533211	1070.803775	-98.690911	45.989010	1178.092622	-191.683426	44.880525	1177.026600	-251.072470	125.991289	1019.029204	-31.669108	151.428501	1070.610352	-412.188196	190.914326	895.477620	-14.772826	243.766168	821.402439	-19.801877	251.591475	734.966767	-32.049117	275.710475	836.026418	-35.202270	271.721628	630.838455	-46.147696	261.227455	606.399922	-157.908989	242.616380	513.648763	-21.330197	246.116300	427.886103	-38.423438	207.835565	349.571435	-42.823670	268.581540	426.850034	-72.173469	185.585498	271.085086	-49.237573	121.140061	270.538070	-98.141653	359.300344	128.550129	-93.639672	262.324549	154.735984	-25.308825	225.120110	998.340210	-424.333734	311.048936	984.238340	-418.289779	325.263960	1015.090322	-401.583235	380.540792	927.607056	-419.214462	453.296228	839.807604	-388.760162	450.794940	828.422060	-268.107745	156.351534	616.901861	-372.088932	77.664468	634.298738	-325.056267	211.335256	491.651828	-397.897698	381.166666	762.839708	-404.117953	324.719230	700.779864	-381.350483	241.324847	668.765695	-381.978682	340.292676	686.225548	-349.107524	286.357042	446.393868	-341.392196	-203.934965	865.098948	-210.604120	-50.920687	80.605661	-411.300277	-50.935072	80.407274	-14.019112	
755	3.7750	559.953314	1254.017572	-76.738725	567.038623	1223.336488	-393.719473	557.906096	1330.002245	-244.388477	540.578331	1162.086603	-230.588497	485.526534	1019.698029	49.789177	667.302388	926.343257	-49.273247	470.430210	995.355789	-509.268632	654.031017	921.558981	-410.456340	15.740227	1141.151641	-224.394828	166.529625	1106.603135	-394.361065	162.988932	1109.918890	-59.992187	180.566250	1057.215686	-352.899986	193.975515	1070.472085	-98.338695	46.123107	1178.255209	-190.683543	44.533617	1177.579983	-249.940742	126.163791	1018.501771	-31.184265	150.726685	1073.032403	-411.206821	190.428798	894.362767	-14.796580	243.060232	820.070915	-19.958257	250.267127	733.486886	-32.640699	274.849106	834.473004	-35.900043	269.509627	629.582376	-47.310922	258.312518	605.253186	-159.240341	239.600472	512.824555	-22.216064	242.052702	427.025350	-39.317243	202.927696	349.168418	-43.200909	264.284293	425.647311	-73.180298	179.325818	270.918392	-49.447440	114.927715	271.360254	-98.289587	350.263848	124.863592	-93.485933	253.735922	153.079574	-25.314351	223.922290	1001.510426	-422.979028	310.136436	988.411648	-417.310985	323.964074	1019.205873	-400.143898	380.241693	932.679315	-419.056803	454.901636	846.057341	-387.260495	452.288137	833.821404	-266.841522	161.103325	617.783218	-371.885289	81.629002	632.947365	-324.992259	219.561964	494.431763	-398.122945	384.065975	767.561718	-402.974913	328.465017	704.572120	-380.727587	245.556755	671.383319	-381.692567	344.211936	690.107116	-348.539816	295.572206	451.283924	-341.720512	-203.986839	865.074983	-210.614536	-50.914619	80.595682	-411.319266	-50.933513	80.425213	-14.005422	
756	3.7800	561.312435	1253.275437	-77.658247	566.698104	1221.435905	-394.917933	558.351709	1328.650095	-245.932004	541.085679	1160.820028	-230.978573	486.099267	1019.907549	50.028505	667.350065	926.020392	-49.196107	469.400222	993.260321	-509.218876	653.785358	921.357056	-410.395197	15.308352	1141.620680	-223.275083	165.638000	1106.380687	-394.630815	163.556680	1109.620859	-59.617954	179.050441	1056.407768	-353.526795	194.281047	1070.040258	-98.053980	46.129315	1177.807069	-189.709857	44.211717	1177.996249	-249.078381	126.223401	1018.040949	-30.671690	150.023754	1075.023324	-410.337268	190.060240	893.272384	-14.738476	241.450435	819.203707	-20.391228	249.529158	732.318111	-33.199476	274.114591	833.182408	-36.648435	268.144607	628.335752	-48.493732	255.786361	604.310186	-160.584212	236.940896	512.158650	-23.174003	238.068126	426.384316	-40.373435	197.914496	348.950962	-43.791978	260.100713	424.624916	-74.361383	172.725848	271.316267	-49.540599	108.478127	272.477813	-98.580432	341.152458	121.927821	-93.259710	245.063910	151.747346	-25.361741	222.732999	1004.296099	-421.455574	309.136590	992.087722	-416.285894	322.678354	1022.857748	-398.760721	379.779889	936.912464	-418.068988	456.123303	851.309829	-385.887200	453.410414	838.852220	-265.340726	165.560410	617.863669	-371.656454	85.380823	630.677941	-324.987431	227.625173	496.722429	-398.447512	386.606772	771.645675	-401.862652	331.948854	707.682871	-380.001838	249.511309	673.250149	-381.305238	347.942453	693.339837	-347.849807	305.010428	455.907682	-341.789322	-204.030388	865.057374	-210.725395	-50.917871	80.555223	-411.330331	-50.941578	80.398487	-14.056990	
